# xmcd
#
# Track frame offsets:
# 150
# 15066
# 29362
# 40283
# 53840
# 64800
# 79516
# 91758
# 103795
# 118827
# 133182
# 149953
# 164900
# 178614
# 190669
# 206873
# 227165
# 245076
# 257919
# 271441
# 282633
# 297691
# 310825
# 324521
#
# Disc length: 4546 seconds
#
#
# Revision: 0
# Processed by: cddbd v1.5.2PL0 Copyright (c) Steve Scherf et al.
# Submitted via: FreeRIP 2.945 
#
DISCID=7a11c018
DTITLE=Cristiano Araújo - Efeitos - Tour 2011 - Ao Vivo
DYEAR=2011
DGENRE=Sertanejo
TTITLE0=Efeitos (Part. Jorge and Mateus)
TTITLE1=Nem pintada de ouro
TTITLE2=Te odeio, te adoro
TTITLE3=É fato (Part. Gusttavo Lima)
TTITLE4=Novela que não sai do ar
TTITLE5=Bebendo, cantando e chorando
TTITLE6=Simples assim (Part. Humberto and Ronaldo)
TTITLE7=O quanto nosso amor valeu
TTITLE8=Puro fogo
TTITLE9=Você vai ficar em mim
TTITLE10=Você mudou
TTITLE11=Nosso amor já era
TTITLE12=Vem fazer amor comigo
TTITLE13=Nosso amor deu liga
TTITLE14=Mal acostumada - Cara à cara, frente à frente
TTITLE15=Você ainda vai voltar - Saudade bandida (Part. João Reis)
TTITLE16=Meninas do buteco
TTITLE17=Relaxa
TTITLE18=Outdoor (Part. Wilian and Marcelo)
TTITLE19=Cuida de mim todo dia - Part. Lucas and Diogo
TTITLE20=Chorar por amor [CD Israel and Rodolffo)
TTITLE21=Copo de vinho [CD Zé Ricardo and Thiago)
TTITLE22=Frases de fogo
TTITLE23=Efeitos (remix)
EXTD=
EXTT0=
EXTT1=
EXTT2=
EXTT3=
EXTT4=
EXTT5=
EXTT6=
EXTT7=
EXTT8=
EXTT9=
EXTT10=
EXTT11=
EXTT12=
EXTT13=
EXTT14=
EXTT15=
EXTT16=
EXTT17=
EXTT18=
EXTT19=
EXTT20=
EXTT21=
EXTT22=
EXTT23=
PLAYORDER=
